Coordinates
version=1
nRows=16
nColumns=36
inDegrees=yes

Units are S.I. units (second, meters, Newtons, ...)
If the header above contains a line with 'inDegrees', this indicates whether rotational values are in degrees (yes) or radians (no).

endheader
time	pelvis_tilt	pelvis_list	pelvis_rotation	pelvis_tx	pelvis_ty	pelvis_tz	hip_flexion_r	hip_adduction_r	hip_rotation_r	knee_angle_r	knee_angle_r_beta	ankle_angle_r	subtalar_angle_r	mtp_angle_r	hip_flexion_l	hip_adduction_l	hip_rotation_l	knee_angle_l	knee_angle_l_beta	ankle_angle_l	subtalar_angle_l	mtp_angle_l	lumbar_extension	lumbar_bending	lumbar_rotation	arm_flex_r	arm_add_r	arm_rot_r	elbow_flex_r	pro_sup_r	arm_flex_l	arm_add_l	arm_rot_l	elbow_flex_l	pro_sup_l
      1.22000000	     -7.81123488	     -0.29728926	     -8.30094837	      1.15295370	      1.03330043	     -0.32623433	     27.72387114	      4.27745949	     -1.98496983	     10.43800824	      0.18217761	     -4.47804634	    -13.59689236	     -7.22337686	     -5.68025194	      0.55250394	    -10.52183276	      2.21711792	      0.03869601	      5.34992415	      0.44111350	     -7.22337686	     -7.19687288	    -24.23626546	     -6.44021218	     -2.34744777	     -6.82087397	      6.61699616	     40.57634162	    109.38622491	     19.23562295	    -17.15408242	     -1.81417610	     52.37919534	    110.40173756
      1.23000000	     -8.12437664	      0.08080019	     -8.16617424	      1.16234069	      1.03125938	     -0.32613266	     27.92090856	      4.14424305	     -1.43020607	      8.06887323	      0.14082840	     -4.30892209	    -12.44594023	     -7.22574871	     -5.87745463	      0.93725701	    -10.49466277	      2.19421464	      0.03829627	      5.33297479	      0.74651297	     -7.22574871	     -6.89707615	    -24.22657778	     -6.39910379	     -2.40944879	     -6.77488974	      6.51992188	     40.46991752	    109.31174236	     19.01969197	    -17.01350568	     -1.59032812	     52.63794930	    110.33357732
      1.24000000	     -8.04780877	      0.24970691	     -8.01080649	      1.17211396	      1.02978784	     -0.32614661	     27.57421085	      4.11433523	     -1.23590886	      5.66243114	      0.09882807	     -3.74237051	    -10.27399079	     -7.23198939	     -6.56843167	      1.14910212	    -10.77621123	      2.10200841	      0.03668697	      5.42060444	      1.46671843	     -7.23198939	     -7.13086828	    -24.00846396	     -6.43662088	     -2.33482275	     -6.75454824	      6.28664597	     40.23457128	    109.31382299	     18.78413829	    -16.90614284	     -1.32605493	     52.95156802	    110.28115015
      1.25000000	     -8.37370761	      0.59602474	     -7.81530253	      1.18178669	      1.02758804	     -0.32614376	     27.75170827	      3.95209403	     -0.74367496	      3.48476933	      0.06082070	     -3.47380198	     -8.80421855	     -7.23443180	     -6.73573323	      1.47768225	    -10.67335402	      2.13902671	      0.03733306	      5.39037778	      1.86595085	     -7.23443180	     -6.83298757	    -23.89389675	     -6.44277266	     -2.39469872	     -6.74313926	      6.17199909	     40.15475961	    109.27635326	     18.44715591	    -16.75029780	     -1.14698163	     53.09787857	    110.23635170
      1.26000000	     -8.39807711	      0.87687403	     -7.63300847	      1.19180966	      1.02575689	     -0.32626426	     27.76979218	      3.75840025	     -1.24418200	      1.82187353	      0.03179769	     -1.98096763	     -5.40463324	     -7.24555912	     -7.23436683	      1.76622866	    -11.02171709	      2.20175482	      0.03842787	      5.64781832	      2.87539272	     -7.24555912	     -6.92936394	    -23.71405236	     -6.46440428	     -2.39273681	     -6.72640684	      5.90051101	     40.01131195	    109.41623129	     18.09367160	    -16.58375452	     -1.01805835	     53.27281136	    110.19497241
      1.27000000	     -8.68164803	      1.32095226	     -7.51291206	      1.20166365	      1.02339151	     -0.32631083	     28.33177014	      3.47645811	     -1.51682969	      0.80054672	      0.01397218	     -0.93734187	     -2.90749011	     -7.25117636	     -7.40564951	      2.21222892	    -11.06808410	      2.30898749	      0.04029943	      5.61965912	      3.23003186	     -7.25117636	     -6.66123293	    -23.65915469	     -6.37916141	     -2.40792595	     -6.70257049	      5.65375983	     39.81299465	    109.45334308	     17.65534000	    -16.43684089	     -0.82389856	     53.38571281	    110.18929023
      1.28000000	     -9.06635697	      1.87347782	     -7.38212511	      1.21152066	      1.02077335	     -0.32642288	     29.24582335	      3.07530227	     -1.93271377	      0.46318454	      0.00808410	      0.43601946	     -0.40214804	     -7.25496683	     -7.43450346	      2.76197912	    -10.91673778	      2.46009445	      0.04293675	      5.55449808	      3.59609232	     -7.25496683	     -6.27945579	    -23.67989577	     -6.28572269	     -2.46646656	     -6.67884513	      5.42930490	     39.73041567	    109.47094075	     17.19729631	    -16.26317328	     -0.68397330	     53.39720946	    110.17588500
      1.29000000	     -9.05836358	      2.12931367	     -7.16617101	      1.22187441	      1.01877854	     -0.32671520	     29.66780846	      2.84774841	     -3.12671267	      0.35953321	      0.00627504	      2.17111063	      2.88345051	     -7.26245232	     -7.90041215	      3.01630362	    -10.93006182	      2.70553220	      0.04722044	      5.60030362	      3.83662289	     -7.26245232	     -6.43070657	    -23.35511930	     -6.24939535	     -2.45315025	     -6.71623459	      5.10241751	     39.64911270	    109.51122023	     16.78922967	    -16.00268602	     -0.51702004	     53.27759846	    110.11615383
      1.30000000	     -9.17106130	      2.44323656	     -6.96797043	      1.23236078	      1.01654773	     -0.32681630	     30.10964908	      2.59923757	     -3.30594961	      0.31590556	      0.00551359	      3.12542758	      4.40315569	     -7.26991075	     -8.22078902	      3.29935555	    -10.82694241	      2.98767503	      0.05214477	      5.56459345	      4.12977174	     -7.26991075	     -6.41654657	    -23.07685089	     -6.19359049	     -2.45796157	     -6.73226769	      4.78294870	     39.54049843	    109.51237812	     16.28546203	    -15.79690963	     -0.33288968	     53.13667515	    110.03783734
      1.31000000	     -9.19531203	      2.67573638	     -6.76289783	      1.24317285	      1.01441127	     -0.32686291	     30.32481668	      2.42522678	     -3.13277448	      0.31802572	      0.00555060	      3.21537614	      4.46667736	     -7.27030734	     -8.66387735	      3.50075819	    -10.70099062	      3.26426311	      0.05697214	      5.49460835	      4.20675175	     -7.27030734	     -6.48722407	    -22.69988078	     -6.08699336	     -2.47321929	     -6.85476370	      4.71767626	     39.48327130	    109.48342576	     15.72946592	    -15.52683045	     -0.20142900	     52.99318906	    110.01437251
      1.32000000	     -9.06567932	      2.75390680	     -6.46319764	      1.25429978	      1.01255948	     -0.32678123	     30.14741660	      2.32201100	     -2.34004195	      0.35620472	      0.00621695	      3.64921003	      4.40488906	     -7.27245534	     -9.22143721	      3.48093519	    -10.40558818	      3.74295999	      0.06532698	      5.45829749	      4.50874747	     -7.27245534	     -6.78512290	    -22.13818046	     -6.20734449	     -2.36957989	     -6.84968844	      4.39695415	     39.29126570	    109.42158886	     15.12803028	    -15.37574275	     -0.02176699	     52.64679752	    109.95660198
      1.33000000	     -8.94407125	      2.77074412	     -6.15966002	      1.26578878	      1.01064708	     -0.32670562	     29.89774026	      2.27104441	     -1.69608884	      0.50152183	      0.00875321	      3.61752330	      4.13128806	     -7.27353199	     -9.76950783	      3.38380751	    -10.09962338	      4.26837163	      0.07449714	      5.35327654	      4.72613131	     -7.27353199	     -7.04074651	    -21.47837785	     -6.21750189	     -2.34157407	     -6.92085600	      4.21819236	     39.19057724	    109.36839798	     14.46402869	    -15.10528296	      0.16191700	     52.33310772	    109.90642375
      1.34000000	     -8.47672055	      2.59562613	     -5.90082824	      1.27751848	      1.00916090	     -0.32627309	     29.12246156	      2.43537927	     -0.22338197	      0.67262540	      0.01173953	      2.30720217	      0.97842267	     -7.28023714	    -10.65522937	      3.03429575	    -10.28215160	      4.93254570	      0.08608916	      5.70431037	      5.69314681	     -7.28023714	     -7.71729627	    -20.63347606	     -6.09188662	     -2.31642040	     -6.97601363	      3.55551992	     39.11536344	    109.28144930	     14.00695408	    -14.90341527	      0.55443174	     51.77138807	    109.79652924
      1.35000000	     -8.24616147	      2.52383021	     -5.60104218	      1.28939857	      1.00734060	     -0.32604805	     28.81082600	      2.45053120	      0.25748102	      1.42800573	      0.02492340	      2.03371940	      0.43472036	     -7.28126948	    -11.21221528	      2.79047361	     -9.95521712	      5.71465136	      0.09973948	      5.54648553	      5.85802235	     -7.28126948	     -8.05395739	    -19.84157729	     -6.11884909	     -2.23612022	     -7.10976313	      3.39529667	     39.01606050	    109.26138810	     13.29181257	    -14.68445266	      0.73935587	     51.28914127	    109.76542447
      1.36000000	     -7.88415747	      2.28684372	     -5.32734012	      1.30140705	      1.00575092	     -0.32542898	     28.25993676	      2.70442639	      1.23284188	      2.12181077	      0.03703258	      0.00693893	     -3.26970521	     -7.28999271	    -11.73329234	      2.25688087	    -10.34789080	      6.89679276	      0.12037174	      5.99030841	      6.92780563	     -7.28999271	     -8.55286227	    -18.87527780	     -5.90118799	     -2.25460116	     -7.15567609	      2.80186157	     38.90264252	    109.22323562	     12.82058796	    -14.44922329	      1.40045023	     50.34780431	    109.67852232
      1.37000000	     -7.56828441	      2.14298529	     -5.11880806	      1.31344968	      1.00419935	     -0.32493399	     28.05401196	      2.81701452	      1.31559891	      3.47045569	      0.06057088	     -0.44085884	     -3.74252803	     -7.29088480	    -12.27937263	      1.91366654	    -10.00434853	      7.86757702	      0.13731512	      5.70433593	      7.02505521	     -7.29088480	     -8.97510572	    -17.96939155	     -5.84178461	     -2.10999215	     -7.27763572	      2.66393234	     38.76330323	    109.20227203	     12.04381075	    -14.22100981	      1.57856369	     49.79245816	    109.64317070
